<svg id="Calque_1" data-name="Calque 1" xmlns="http://www.w3.org/2000/svg" xmlns:xlink="http://www.w3.org/1999/xlink" viewBox="0 0 120.05 119.54"><defs><style>.cls-1{fill:none;}.cls-2{clip-path:url(#clip-path);}.cls-3{clip-path:url(#clip-path-2);}.cls-4{fill:#d1d2d3;}.cls-5{clip-path:url(#clip-path-3);}.cls-6{fill:#bbbdbf;}.cls-7{fill:#fff;}.cls-8{clip-path:url(#clip-path-4);}.cls-9{fill:#f89a4b;}.cls-10{clip-path:url(#clip-path-5);}.cls-11{fill:#f68b22;}</style><clipPath id="clip-path" transform="translate(-1049 -393.32)"><circle class="cls-1" cx="1110.06" cy="453.6" r="59.76"/></clipPath><clipPath id="clip-path-2" transform="translate(-1049 -393.32)"><rect class="cls-1" x="1025.3" y="361.49" width="84" height="191.62"/></clipPath><clipPath id="clip-path-3" transform="translate(-1049 -393.32)"><rect class="cls-1" x="1109.38" y="368.49" width="84" height="191.62"/></clipPath><clipPath id="clip-path-4" transform="translate(-1049 -393.32)"><rect class="cls-1" x="999.39" y="393.62" width="110.96" height="124.01"/></clipPath><clipPath id="clip-path-5" transform="translate(-1049 -393.32)"><rect class="cls-1" x="1109.78" y="395.37" width="110.96" height="124.01"/></clipPath></defs><title>bouton_slider</title><g class="cls-2"><g class="cls-3"><circle class="cls-4" cx="60.3" cy="59.76" r="59.76"/></g><g class="cls-5"><circle class="cls-6" cx="59.76" cy="59.78" r="59.76"/></g><circle class="cls-7" cx="60.22" cy="60.18" r="51.2"/><g class="cls-8"><path class="cls-9" d="M1090.54,487.23l0-3.79,37.91,0.49,0,3.79Z" transform="translate(-1049 -393.32)"/><path class="cls-9" d="M1095,438a15.09,15.09,0,0,0,8.07,13.58l3.26,1.73-3.31,1.64a15,15,0,0,0-8.41,13.37l-0.14,11.38,30.33,0.39,0.14-11.38a15.1,15.1,0,0,0-8.07-13.58l-3.26-1.72,3.31-1.64a15.08,15.08,0,0,0,8.41-13.37l0.14-11.38-30.33-.39Z" transform="translate(-1049 -393.32)"/><path class="cls-9" d="M1091.37,422.78l0-3.79,37.91,0.49,0,3.79Z" transform="translate(-1049 -393.32)"/><path class="cls-9" d="M1084,407.05a53.08,53.08,0,1,0,72.25,20.36A53.08,53.08,0,0,0,1084,407.05Zm49,20.06-3.79,0-0.14,11.38a18.85,18.85,0,0,1-7.79,15.06,18.85,18.85,0,0,1,7.4,15.26l-0.14,11.38,3.79,0-0.14,11.38-45.49-.58,0.14-11.38,3.79,0,0.14-11.38a18.85,18.85,0,0,1,7.78-15.08,18.85,18.85,0,0,1-7.4-15.26l0.14-11.38-3.79,0,0.14-11.38,45.49,0.58Z" transform="translate(-1049 -393.32)"/></g><g class="cls-10"><path class="cls-11" d="M1089.67,487.34l0-3.79,37.91,0.49,0,3.79Z" transform="translate(-1049 -393.32)"/><path class="cls-11" d="M1094.09,438.11a15.09,15.09,0,0,0,8.07,13.58l3.26,1.73-3.31,1.64a15,15,0,0,0-8.41,13.37l-0.14,11.38,30.33,0.39,0.14-11.38a15.1,15.1,0,0,0-8.07-13.58l-3.26-1.72,3.31-1.64a15.08,15.08,0,0,0,8.41-13.37l0.14-11.38-30.33-.39Z" transform="translate(-1049 -393.32)"/><path class="cls-11" d="M1090.5,422.89l0-3.79,37.91,0.49,0,3.79Z" transform="translate(-1049 -393.32)"/><path class="cls-11" d="M1083.12,407.16a53.08,53.08,0,1,0,72.25,20.36A53.08,53.08,0,0,0,1083.12,407.16Zm49,20.06-3.79,0-0.14,11.38a18.85,18.85,0,0,1-7.79,15.06,18.85,18.85,0,0,1,7.4,15.26l-0.14,11.38,3.79,0-0.14,11.38-45.49-.58,0.14-11.38,3.79,0,0.14-11.38a18.85,18.85,0,0,1,7.78-15.08,18.85,18.85,0,0,1-7.4-15.26l0.14-11.38-3.79,0,0.14-11.38,45.49,0.58Z" transform="translate(-1049 -393.32)"/></g></g></svg>