<svg id="Calque_1" data-name="Calque 1" xmlns="http://www.w3.org/2000/svg" viewBox="0 0 116.15 116.15"><defs><style>.cls-1{fill:#41b8ea;}.cls-2{fill:#787878;}</style></defs><title>calculs</title><path class="cls-1" d="M290.84,334.1h52.57V280H290.84v54.1Zm10.44-42.51H333v12H301.28v-12Zm0,20.67H333v12H301.28v-12Z" transform="translate(-227.61 -218.31)"/><path class="cls-2" d="M290.49,218.31V270h53.27V218.31H290.49Zm47.45,31.94H323.49V265H310.93V250.25H296.29V237.67h14.63V223.36h12.57v14.32h14.45v12.58Z" transform="translate(-227.61 -218.31)"/><path class="cls-2" d="M227.61,270h53.28V218.31H227.61V270Zm11.81-32h32.1v12.19h-32.1V238.08Z" transform="translate(-227.61 -218.31)"/><path class="cls-2" d="M227.61,334.45h53.28V279.63H227.61v54.83Zm7.78-39.28,7-7s11.15,11.88,11.87,11.88,11.88-11.88,11.88-11.88l7,7s-11.88,11.06-11.88,11.89,11.88,11.87,11.88,11.87l-7,7S255.07,314,254.24,314s-11.87,11.87-11.87,11.87l-7-7s11.87-10.9,11.87-11.87S235.39,295.17,235.39,295.17Z" transform="translate(-227.61 -218.31)"/></svg>