<svg id="Calque_1" data-name="Calque 1" xmlns="http://www.w3.org/2000/svg" xmlns:xlink="http://www.w3.org/1999/xlink" viewBox="0 0 92.96 92.96"><defs><style>.cls-1{stroke:#777;stroke-miterlimit:10;fill:url(#Dégradé_sans_nom_8);}.cls-2{fill:#fff;}.cls-3{fill:#787878;}</style><linearGradient id="Dégradé_sans_nom_8" x1="46.48" y1="0.5" x2="46.48" y2="92.46" gradientUnits="userSpaceOnUse"><stop offset="0" stop-color="#fff"/><stop offset="1" stop-color="#d9d9d9"/></linearGradient></defs><title>check</title><rect class="cls-1" x="0.5" y="0.5" width="91.96" height="91.96"/><path class="cls-2" d="M614.83,377.61a1.15,1.15,0,0,0-.94.53l-3.34,5H599.18a1.15,1.15,0,0,0-1.15,1.15v11.52a1.15,1.15,0,0,0,1.15,1.15h11.52a1.15,1.15,0,0,0,1.15-1.15v-9.09l-2.3,3.46v4.48h-9.22v-9.22H609l-3.24,4.86-1.42-2.83a1.15,1.15,0,1,0-2.07,1v0l2.3,4.61a1.15,1.15,0,0,0,2,.12l9.22-13.83a1.15,1.15,0,0,0-1-1.8h0Zm5.09,11.24a1,1,0,0,0-1.15.6v1.21a1,1,0,0,0,1.15.6h20.74a1,1,0,0,0,1.15-.6v-1.21a1,1,0,0,0-1.15-.6H619.92Zm-20.74,10.43a1.15,1.15,0,0,0-1.15,1.15V412a1.15,1.15,0,0,0,1.15,1.15h11.52a1.15,1.15,0,0,0,1.15-1.15V400.43a1.15,1.15,0,0,0-1.15-1.15H599.18Zm1.15,2.3h9.22v9.22h-9.22v-9.22ZM619.92,405a1,1,0,0,0-1.15.6v1.21a1,1,0,0,0,1.15.6h20.74a1,1,0,0,0,1.15-.6v-1.21a1,1,0,0,0-1.15-.6H619.92Zm-20.74,10.43a1.15,1.15,0,0,0-1.15,1.15v11.52a1.15,1.15,0,0,0,1.15,1.15h11.52a1.15,1.15,0,0,0,1.15-1.15V416.56a1.15,1.15,0,0,0-1.15-1.15H599.18Zm1.15,2.3h9.22v9.22h-9.22v-9.22Zm19.59,3.41a1,1,0,0,0-1.15.6v1.21a1,1,0,0,0,1.15.6h20.74a1,1,0,0,0,1.15-.6v-1.21a1,1,0,0,0-1.15-.6H619.92Z" transform="translate(-572.65 -355.54)"/><path class="cls-3" d="M614.63,376a1.15,1.15,0,0,0-.94.53l-3.34,5H599a1.15,1.15,0,0,0-1.15,1.15v11.52A1.15,1.15,0,0,0,599,395.4H610.5a1.15,1.15,0,0,0,1.15-1.15v-9.09l-2.3,3.46v4.48h-9.22v-9.22h8.68l-3.24,4.86-1.42-2.83a1.15,1.15,0,1,0-2.07,1v0l2.3,4.61a1.15,1.15,0,0,0,2,.12l9.22-13.83a1.15,1.15,0,0,0-1-1.8h0Zm5.09,11.24a1,1,0,0,0-1.15.6v1.21a1,1,0,0,0,1.15.6h20.74a1,1,0,0,0,1.15-.6v-1.21a1,1,0,0,0-1.15-.6H619.72ZM599,397.71a1.15,1.15,0,0,0-1.15,1.15v11.52a1.15,1.15,0,0,0,1.15,1.15H610.5a1.15,1.15,0,0,0,1.15-1.15V398.86a1.15,1.15,0,0,0-1.15-1.15H599Zm1.15,2.3h9.22v9.22h-9.22V400Zm19.59,3.39a1,1,0,0,0-1.15.6v1.21a1,1,0,0,0,1.15.6h20.74a1,1,0,0,0,1.15-.6V404a1,1,0,0,0-1.15-.6H619.72ZM599,413.84a1.15,1.15,0,0,0-1.15,1.15v11.52a1.15,1.15,0,0,0,1.15,1.15H610.5a1.15,1.15,0,0,0,1.15-1.15V415a1.15,1.15,0,0,0-1.15-1.15H599Zm1.15,2.3h9.22v9.22h-9.22v-9.22Zm19.59,3a1,1,0,0,0-1.15.81v1.61a1,1,0,0,0,1.15.81h20.74a1,1,0,0,0,1.15-.81V420a1,1,0,0,0-1.15-.81H619.72Z" transform="translate(-572.65 -355.54)"/></svg>