<svg id="Calque_1" data-name="Calque 1" xmlns="http://www.w3.org/2000/svg" viewBox="0 0 108.82 107.84"><defs><style>.cls-1{fill:#787878;}.cls-2{fill:#f68b21;}</style></defs><title>choix_duree</title><path class="cls-1" d="M165.5,349.5A4.48,4.48,0,0,0,161,345.8h-1.42l-0.42-4.37a34.36,34.36,0,0,1-10.38-4.5l0.85,8.87H100.4l0.87-9.14a11.85,11.85,0,0,1,11.81-10.77h1.41v1.75a4.5,4.5,0,0,0,4.47,4.56H131.1a4.49,4.49,0,0,0,4.45-4.56V325.9H137c0.36,0,.72,0,1.07,0a34.43,34.43,0,0,1-4.17-10h-20.8A21.74,21.74,0,0,0,91.42,335.7l-1,10.11H89a4.49,4.49,0,0,0-4.45,3.69l-3.75,21.23a9,9,0,0,0,2,7.38,9.16,9.16,0,0,0,6.62,3.21v3.53a9,9,0,0,0,9.06,9h2.84a8.93,8.93,0,0,0,9-9V381.4h29.48v3.45a9,9,0,0,0,9,9h2.85a9,9,0,0,0,9-9v-3.53a9.19,9.19,0,0,0,6.63-3.22,9.08,9.08,0,0,0,2-7.39ZM97.4,373.18a7.64,7.64,0,1,1,7.64-7.64A7.64,7.64,0,0,1,97.4,373.18Zm55.28,0a7.64,7.64,0,1,1,7.64-7.64A7.64,7.64,0,0,1,152.68,373.18Z" transform="translate(-80.69 -286.01)"/><path class="cls-2" d="M163.14,286a26.36,26.36,0,1,0,26.37,26.36A26.39,26.39,0,0,0,163.14,286Zm0,43.23A16.87,16.87,0,1,1,180,312.37,16.89,16.89,0,0,1,163.14,329.24Z" transform="translate(-80.69 -286.01)"/><path class="cls-2" d="M172.64,309.76h-6.27v-8.45a3.18,3.18,0,0,0-6.36,0v9.14a5.65,5.65,0,0,0,5.6,5.67h7A3.18,3.18,0,0,0,172.64,309.76Z" transform="translate(-80.69 -286.01)"/></svg>