<svg id="Calque_1" data-name="Calque 1" xmlns="http://www.w3.org/2000/svg" xmlns:xlink="http://www.w3.org/1999/xlink" viewBox="0 0 92.64 92.64"><defs><style>.cls-1{stroke:#777;stroke-miterlimit:10;fill:url(#Dégradé_sans_nom_8);}.cls-2{fill:#fff;}.cls-3{fill:#787878;}</style><linearGradient id="Dégradé_sans_nom_8" x1="46.32" y1="0.5" x2="46.32" y2="92.14" gradientUnits="userSpaceOnUse"><stop offset="0" stop-color="#fff"/><stop offset="1" stop-color="#d9d9d9"/></linearGradient></defs><title>lasso</title><rect class="cls-1" x="0.5" y="0.5" width="91.64" height="91.64"/><path class="cls-2" d="M767.82,421.33a0.52,0.52,0,0,0,.52-0.52v-7.75a39.53,39.53,0,0,1-4.19,1.64v6.11a0.52,0.52,0,0,0,.52.52h3.15Z" transform="translate(-701.65 -355.86)"/><path class="cls-2" d="M738.64,430.83a0.49,0.49,0,0,0,.35-0.49V406.6a0.52,0.52,0,0,0-.89-0.38l-17,16.63a0.52,0.52,0,0,0,.4.89l8.72-.66h0.2a2.64,2.64,0,0,1,2,.93l5.59,6.66A0.48,0.48,0,0,0,738.64,430.83Z" transform="translate(-701.65 -355.86)"/><path class="cls-2" d="M753.06,411.71c-1.22.12-2.42,0.18-3.6,0.18a42.53,42.53,0,0,1-8.39-.88v3.08a47.84,47.84,0,0,0,8.39.73,48.39,48.39,0,0,0,7-.49A10.9,10.9,0,0,1,753.06,411.71Z" transform="translate(-701.65 -355.86)"/><path class="cls-2" d="M730.51,410.72l2.39-2.34c-5.83-2.72-9.13-6.59-9.13-10.75,0-8.54,13.29-14.26,25.7-14.26s25.7,5.73,25.7,14.26c0,3.09-1.78,6-5.16,8.45a27.15,27.15,0,0,1-6.5,3.35l-0.05,0h-0.06l-0.05,0a8.59,8.59,0,0,1-2.09.27,4.47,4.47,0,0,1-2.85-.88,4.57,4.57,0,0,1-1.59-3.8,3.67,3.67,0,0,1,7.34,0v1.85a23.71,23.71,0,0,0,4.18-2.24v-0.06a7.57,7.57,0,0,0-2.68-5.21,8.25,8.25,0,0,0-6-2.13,7.45,7.45,0,0,0-6.34,4.55,7.94,7.94,0,0,0,1,8.16,7.79,7.79,0,0,0,8.44,2.94,0.8,0.8,0,0,1,.22,0,35.34,35.34,0,0,0,5.87-2.36,0.7,0.7,0,0,1,.2-0.09c6-3.16,9.77-7.73,9.77-12.8,0-9.48-13.17-17.2-29.36-17.2s-29.36,7.72-29.36,17.2C720.11,402.69,723.89,407.43,730.51,410.72Z" transform="translate(-701.65 -355.86)"/><path class="cls-3" d="M767.82,419.42a0.52,0.52,0,0,0,.52-0.52v-7.75a39.53,39.53,0,0,1-4.19,1.64v6.11a0.52,0.52,0,0,0,.52.52h3.15Z" transform="translate(-701.65 -355.86)"/><path class="cls-3" d="M738.64,428.92a0.49,0.49,0,0,0,.35-0.49V404.68a0.52,0.52,0,0,0-.89-0.38l-17,16.63a0.52,0.52,0,0,0,.4.89l8.72-.66h0.2a2.64,2.64,0,0,1,2,.93l5.59,6.66A0.48,0.48,0,0,0,738.64,428.92Z" transform="translate(-701.65 -355.86)"/><path class="cls-3" d="M753.06,409.8c-1.22.12-2.42,0.18-3.6,0.18a42.53,42.53,0,0,1-8.39-.88v3.08a47.84,47.84,0,0,0,8.39.73,48.39,48.39,0,0,0,7-.49A10.9,10.9,0,0,1,753.06,409.8Z" transform="translate(-701.65 -355.86)"/><path class="cls-3" d="M730.51,408.81l2.39-2.34c-5.83-2.72-9.13-6.59-9.13-10.75,0-8.54,13.29-14.26,25.7-14.26s25.7,5.73,25.7,14.26c0,3.09-1.78,6-5.16,8.45a27.15,27.15,0,0,1-6.5,3.35l-0.05,0h-0.06l-0.05,0a8.59,8.59,0,0,1-2.09.27,4.47,4.47,0,0,1-2.85-.88,4.57,4.57,0,0,1-1.59-3.8,3.67,3.67,0,0,1,7.34,0V405a23.71,23.71,0,0,0,4.18-2.24V402.7a7.57,7.57,0,0,0-2.68-5.21,8.25,8.25,0,0,0-6-2.13,7.45,7.45,0,0,0-6.34,4.55,7.94,7.94,0,0,0,1,8.16,7.79,7.79,0,0,0,8.44,2.94,0.8,0.8,0,0,1,.22,0,35.34,35.34,0,0,0,5.87-2.36,0.7,0.7,0,0,1,.2-0.09c6-3.16,9.77-7.73,9.77-12.8,0-9.48-13.17-17.2-29.36-17.2s-29.36,7.72-29.36,17.2C720.11,400.77,723.89,405.51,730.51,408.81Z" transform="translate(-701.65 -355.86)"/></svg>