<svg id="Calque_1" data-name="Calque 1" xmlns="http://www.w3.org/2000/svg" xmlns:xlink="http://www.w3.org/1999/xlink" viewBox="0 0 92.64 92.64"><defs><style>.cls-1{stroke:#777;stroke-miterlimit:10;fill:url(#Dégradé_sans_nom_8);}.cls-2{fill:#fff;}.cls-3{fill:#787878;}</style><linearGradient id="Dégradé_sans_nom_8" x1="46.32" y1="0.5" x2="46.32" y2="92.14" gradientUnits="userSpaceOnUse"><stop offset="0" stop-color="#fff"/><stop offset="1" stop-color="#d9d9d9"/></linearGradient></defs><title>lasso_select_all</title><rect class="cls-1" x="0.5" y="0.5" width="91.64" height="91.64"/><path class="cls-2" d="M552.55,554l4.79,4.79,9-9,3,3-11.91,11.91L549.6,557Z" transform="translate(-481.01 -476.62)"/><path class="cls-2" d="M542.7,539.26a0.4,0.4,0,0,0,.4-0.4v-6a30.49,30.49,0,0,1-3.23,1.26v4.72a0.4,0.4,0,0,0,.4.4h2.43Z" transform="translate(-481.01 -476.62)"/><path class="cls-2" d="M520.19,546.59a0.38,0.38,0,0,0,.27-0.38V527.9a0.4,0.4,0,0,0-.69-0.29l-13.08,12.83a0.4,0.4,0,0,0,.31.69l6.73-.51h0.15a2,2,0,0,1,1.55.72l4.31,5.14A0.37,0.37,0,0,0,520.19,546.59Z" transform="translate(-481.01 -476.62)"/><path class="cls-2" d="M531.32,531.85c-0.94.09-1.87,0.14-2.77,0.14a32.8,32.8,0,0,1-6.47-.68v2.38a36.89,36.89,0,0,0,6.47.57,37.32,37.32,0,0,0,5.36-.38A8.41,8.41,0,0,1,531.32,531.85Z" transform="translate(-481.01 -476.62)"/><path class="cls-2" d="M513.92,531.08l1.84-1.8c-4.5-2.09-7-5.08-7-8.29,0-6.58,10.25-11,19.82-11s19.82,4.42,19.82,11c0,2.39-1.37,4.63-4,6.52a20.94,20.94,0,0,1-5,2.58l0,0h0l0,0a6.62,6.62,0,0,1-1.61.21,3.45,3.45,0,0,1-2.2-.68,3.52,3.52,0,0,1-1.23-2.93,2.83,2.83,0,0,1,5.66,0v1.42a18.29,18.29,0,0,0,3.23-1.73v0a5.84,5.84,0,0,0-2.07-4,6.37,6.37,0,0,0-4.6-1.64,5.75,5.75,0,0,0-4.89,3.51,6.13,6.13,0,0,0,.76,6.29,6,6,0,0,0,6.51,2.26l0.17,0a27.26,27.26,0,0,0,4.53-1.82,0.54,0.54,0,0,1,.15-0.07c4.63-2.43,7.54-6,7.54-9.88,0-7.31-10.16-13.26-22.65-13.26s-22.65,6-22.65,13.26C505.9,524.88,508.82,528.54,513.92,531.08Z" transform="translate(-481.01 -476.62)"/><path class="cls-3" d="M542.7,537.79a0.4,0.4,0,0,0,.4-0.4v-6a30.49,30.49,0,0,1-3.23,1.26v4.72a0.4,0.4,0,0,0,.4.4h2.43Z" transform="translate(-481.01 -476.62)"/><path class="cls-3" d="M520.19,545.12a0.38,0.38,0,0,0,.27-0.38V526.43a0.4,0.4,0,0,0-.69-0.29L506.69,539a0.4,0.4,0,0,0,.31.69l6.73-.51h0.15a2,2,0,0,1,1.55.72l4.31,5.14A0.37,0.37,0,0,0,520.19,545.12Z" transform="translate(-481.01 -476.62)"/><path class="cls-3" d="M531.32,530.37c-0.94.09-1.87,0.14-2.77,0.14a32.8,32.8,0,0,1-6.47-.68v2.38a36.89,36.89,0,0,0,6.47.57,37.32,37.32,0,0,0,5.36-.38A8.41,8.41,0,0,1,531.32,530.37Z" transform="translate(-481.01 -476.62)"/><path class="cls-3" d="M513.92,529.6l1.84-1.8c-4.5-2.09-7-5.08-7-8.29,0-6.58,10.25-11,19.82-11s19.82,4.42,19.82,11c0,2.39-1.37,4.63-4,6.52a20.94,20.94,0,0,1-5,2.58l0,0h0l0,0a6.62,6.62,0,0,1-1.61.21,3.45,3.45,0,0,1-2.2-.68,3.52,3.52,0,0,1-1.23-2.93,2.83,2.83,0,1,1,5.66,0v1.42a18.29,18.29,0,0,0,3.23-1.73v0a5.84,5.84,0,0,0-2.07-4,6.37,6.37,0,0,0-4.6-1.64,5.75,5.75,0,0,0-4.89,3.51,6.13,6.13,0,0,0,.76,6.29,6,6,0,0,0,6.51,2.26l0.17,0a27.26,27.26,0,0,0,4.53-1.82,0.54,0.54,0,0,1,.15-0.07c4.63-2.43,7.54-6,7.54-9.88,0-7.31-10.16-13.26-22.65-13.26s-22.65,6-22.65,13.26C505.9,523.41,508.82,527.06,513.92,529.6Z" transform="translate(-481.01 -476.62)"/><path class="cls-3" d="M552.55,551.86l4.79,4.79,9-9,3,3-11.91,11.91-7.74-7.74Z" transform="translate(-481.01 -476.62)"/></svg>