<svg id="Calque_1" data-name="Calque 1" xmlns="http://www.w3.org/2000/svg" viewBox="0 0 111.38 120.01"><defs><style>.cls-1{fill:#787878;}.cls-2{fill:#44b8ea;}</style></defs><title>population_selectionnee</title><path class="cls-1" d="M806.69,192.34a10.71,10.71,0,1,1,1.25,21.38,10.6,10.6,0,0,1-5.26-1.06A15,15,0,0,0,798,198.25l-0.19-.15A10.61,10.61,0,0,1,806.69,192.34Zm-19.28,6.43,0.64,0A10.68,10.68,0,1,1,787.42,198.76Zm-19.28-6.43a10.69,10.69,0,0,1,10.12,5.78,15.3,15.3,0,0,0-1.42,1.38,14.9,14.9,0,0,0-3.76,10.84,15.1,15.1,0,0,0,.34,2.32,10.46,10.46,0,0,1-4,1,10.6,10.6,0,0,1-5.26-1.06,15.05,15.05,0,0,0,.33-4.09,14.9,14.9,0,0,0-5-10.31l-0.19-.15a10.61,10.61,0,0,1,8.87-5.76h0Zm-19.28,6.43,0.64,0A10.68,10.68,0,1,1,748.86,198.76Zm-26.65-2.86a10.69,10.69,0,0,1,17.49,2.21,15.13,15.13,0,0,0-1.42,1.38,14.9,14.9,0,0,0-3.76,10.84,15.09,15.09,0,0,0,.34,2.34,10.44,10.44,0,0,1-4,1A10.71,10.71,0,0,1,722.21,195.91Z" transform="translate(-713.08 -192.32)"/><path class="cls-1" d="M764.48,254.44h-6.43v-7.5a7.45,7.45,0,0,0-2.19-5.31,7.53,7.53,0,0,0-5.84-2.19,7.69,7.69,0,0,0-7,7.84v7.15H734.5a2.14,2.14,0,0,1-2.14-2.14v-6.43A12.87,12.87,0,0,1,745.21,233h8.57a12.87,12.87,0,0,1,12.85,12.85v6.43A2.14,2.14,0,0,1,764.48,254.44Zm40.7-2.14a2.14,2.14,0,0,1-2.14,2.14h-30a2.14,2.14,0,0,1-2.14-2.14v-6.43A12.87,12.87,0,0,1,783.76,233h8.57a12.87,12.87,0,0,1,12.85,12.85v6.43Zm6.43-25.7a12.87,12.87,0,0,1,12.85,12.85v6.43a2.14,2.14,0,0,1-2.14,2.14H809.46v-2.14a17.16,17.16,0,0,0-14-16.83,12.83,12.83,0,0,1,7.52-2.45h8.57Zm-38.55,0a12.84,12.84,0,0,1,7.52,2.45,17.17,17.17,0,0,0-11.81,8.55A17.18,17.18,0,0,0,757,229a12.83,12.83,0,0,1,7.52-2.45h8.57Zm-60,12.85a12.87,12.87,0,0,1,12.85-12.85h8.57A12.83,12.83,0,0,1,742,229a17.16,17.16,0,0,0-13.95,16.83V248H715.22a2.14,2.14,0,0,1-2.14-2.14v-6.43Z" transform="translate(-713.08 -192.32)"/><path class="cls-2" d="M761.33,265.15a3.19,3.19,0,0,1,3.21,3.21v13.92a2.14,2.14,0,1,0,4.28,0V270.51a3.21,3.21,0,0,1,6.43,0v11.78a2.14,2.14,0,1,0,4.28,0v-9.64a3.21,3.21,0,1,1,6.43,0v23a16.62,16.62,0,0,1-16.6,16.6l-0.27.05-0.27-.05H764a16.67,16.67,0,0,1-13.49-6.92,113.68,113.68,0,0,0-11.83-14.46l-5-5a3.46,3.46,0,0,1-.39-4.62,3.27,3.27,0,0,1,4.69-.17l2.13,2.12a4.28,4.28,0,0,0,7.32-3V247.29a3.45,3.45,0,0,1,3-3.56,3.24,3.24,0,0,1,2.53.94,3.19,3.19,0,0,1,.94,2.27v35.34a2.14,2.14,0,0,0,4.29,0V268.37A3.21,3.21,0,0,1,761.33,265.15Z" transform="translate(-713.08 -192.32)"/></svg>