<svg id="Calque_1" data-name="Calque 1" xmlns="http://www.w3.org/2000/svg" viewBox="0 0 140 100"><defs><style>.cls-1{fill:#f68b21;}.cls-2{fill:#787878;}</style></defs><title>population</title><path class="cls-1" d="M703.17,461a2.5,2.5,0,0,0-2.91,0l-17.5,12.5a2.5,2.5,0,0,0,0,4.07l17.5,12.5a2.5,2.5,0,0,0,2.91,0l17.5-12.5a2.5,2.5,0,0,0,0-4.07Z" transform="translate(-631.72 -425.56)"/><path class="cls-2" d="M682.77,442.59l17.5,12.5a2.49,2.49,0,0,0,2.91,0l17.5-12.5a2.5,2.5,0,0,0,0-4.07L703.17,426a2.5,2.5,0,0,0-2.91,0l-17.5,12.5A2.5,2.5,0,0,0,682.77,442.59Z" transform="translate(-631.72 -425.56)"/><path class="cls-2" d="M706.72,458.06a2.49,2.49,0,0,0,1,2l17.5,12.5a2.49,2.49,0,0,0,2.91,0l17.5-12.5a2.5,2.5,0,0,0,0-4.07l-17.5-12.5a2.49,2.49,0,0,0-2.91,0L707.77,456A2.49,2.49,0,0,0,706.72,458.06Z" transform="translate(-631.72 -425.56)"/><path class="cls-2" d="M657.77,460.09l17.5,12.5a2.49,2.49,0,0,0,2.91,0l17.5-12.5a2.5,2.5,0,0,0,0-4.07l-17.5-12.5a2.5,2.5,0,0,0-2.91,0L657.77,456A2.5,2.5,0,0,0,657.77,460.09Z" transform="translate(-631.72 -425.56)"/><path class="cls-2" d="M720.67,508.53L703.17,496a2.5,2.5,0,0,0-2.91,0l-17.5,12.5a2.5,2.5,0,0,0,0,4.07l17.5,12.5a2.5,2.5,0,0,0,2.91,0l17.5-12.5A2.5,2.5,0,0,0,720.67,508.53Z" transform="translate(-631.72 -425.56)"/><path class="cls-2" d="M770.67,473.53L753.17,461a2.5,2.5,0,0,0-2.91,0l-17.5,12.5a2.5,2.5,0,0,0,0,4.07l17.5,12.5a2.5,2.5,0,0,0,2.91,0l17.5-12.5A2.5,2.5,0,0,0,770.67,473.53Z" transform="translate(-631.72 -425.56)"/><path class="cls-2" d="M745.67,491l-17.5-12.5a2.5,2.5,0,0,0-2.91,0L707.77,491a2.5,2.5,0,0,0,0,4.07l17.5,12.5a2.5,2.5,0,0,0,2.91,0l17.5-12.5A2.5,2.5,0,0,0,745.67,491Z" transform="translate(-631.72 -425.56)"/><path class="cls-2" d="M671.72,475.56a2.49,2.49,0,0,0-1-2L653.17,461a2.49,2.49,0,0,0-2.91,0l-17.5,12.5a2.5,2.5,0,0,0,0,4.07l17.5,12.5a2.49,2.49,0,0,0,2.91,0l17.5-12.5A2.49,2.49,0,0,0,671.72,475.56Z" transform="translate(-631.72 -425.56)"/><path class="cls-2" d="M696.72,493.06a2.49,2.49,0,0,0-1-2l-17.5-12.5a2.49,2.49,0,0,0-2.91,0L657.77,491a2.5,2.5,0,0,0,0,4.07l17.5,12.5a2.49,2.49,0,0,0,2.91,0l17.5-12.5A2.49,2.49,0,0,0,696.72,493.06Z" transform="translate(-631.72 -425.56)"/></svg>