<svg id="Calque_1" data-name="Calque 1" xmlns="http://www.w3.org/2000/svg" xmlns:xlink="http://www.w3.org/1999/xlink" viewBox="0 0 92.64 92.64"><defs><style>.cls-1{stroke:#777;fill:url(#Dégradé_sans_nom_8);}.cls-1,.cls-3{stroke-miterlimit:10;}.cls-2{fill:#787878;}.cls-3{fill:none;stroke:#ed1c24;stroke-width:4px;}</style><linearGradient id="Dégradé_sans_nom_8" x1="46.32" y1="0.5" x2="46.32" y2="92.14" gradientUnits="userSpaceOnUse"><stop offset="0" stop-color="#fff"/><stop offset="1" stop-color="#d9d9d9"/></linearGradient></defs><title>remove_squares</title><rect class="cls-1" x="0.5" y="0.5" width="91.64" height="91.64"/><path class="cls-2" d="M699.2,641a2.81,2.81,0,0,0-2.8-2.8h-6.68a2.81,2.81,0,0,0-2.8,2.8v6.67a2.81,2.81,0,0,0,2.8,2.8h6.67a2.81,2.81,0,0,0,2.8-2.8V641h0Zm-2.15,6.68a0.66,0.66,0,0,1-.66.66h-6.68a0.66,0.66,0,0,1-.66-0.66V641a0.66,0.66,0,0,1,.66-0.66h6.67a0.66,0.66,0,0,1,.66.66v6.68h0Z" transform="translate(-675.41 -612.12)"/><path class="cls-2" d="M699.2,656.21a2.81,2.81,0,0,0-2.8-2.8h-6.68a2.81,2.81,0,0,0-2.8,2.8v6.67a2.81,2.81,0,0,0,2.8,2.8h6.67a2.81,2.81,0,0,0,2.8-2.8v-6.67h0Zm-2.15,6.67a0.66,0.66,0,0,1-.66.66h-6.68a0.66,0.66,0,0,1-.66-0.66v-6.67a0.66,0.66,0,0,1,.66-0.66h6.67a0.66,0.66,0,0,1,.66.66v6.67h0Z" transform="translate(-675.41 -612.12)"/><path class="cls-2" d="M710.4,674.58h-6.68a2.81,2.81,0,0,0-2.8,2.8V684a2.81,2.81,0,0,0,2.8,2.8h6.67a2.81,2.81,0,0,0,2.8-2.8v-6.67A2.8,2.8,0,0,0,710.4,674.58Zm0.66,9.48a0.66,0.66,0,0,1-.66.66h-6.68a0.66,0.66,0,0,1-.66-0.66v-6.67a0.66,0.66,0,0,1,.66-0.66h6.67a0.66,0.66,0,0,1,.66.66v6.67h0Z" transform="translate(-675.41 -612.12)"/><path class="cls-2" d="M744.26,662.88a2.81,2.81,0,0,0,2.8,2.8h6.67a2.81,2.81,0,0,0,2.8-2.8v-6.67a2.81,2.81,0,0,0-2.8-2.8h-6.67a2.81,2.81,0,0,0-2.8,2.8v6.67h0Zm2.15-6.67a0.66,0.66,0,0,1,.66-0.66h6.67a0.66,0.66,0,0,1,.66.66v6.67a0.66,0.66,0,0,1-.66.66h-6.67a0.66,0.66,0,0,1-.66-0.66v-6.67h0Z" transform="translate(-675.41 -612.12)"/><path class="cls-2" d="M731.26,684.06a2.81,2.81,0,0,0,2.8,2.8h6.67a2.81,2.81,0,0,0,2.8-2.8v-6.67a2.81,2.81,0,0,0-2.8-2.8h-6.67a2.81,2.81,0,0,0-2.8,2.8v6.67h0Zm2.15-6.68a0.66,0.66,0,0,1,.66-0.66h6.67a0.66,0.66,0,0,1,.66.66V684a0.66,0.66,0,0,1-.66.66h-6.67a0.66,0.66,0,0,1-.66-0.66v-6.67h0Z" transform="translate(-675.41 -612.12)"/><path class="cls-2" d="M747.06,650.52h6.67a2.81,2.81,0,0,0,2.8-2.8V641a2.81,2.81,0,0,0-2.8-2.8h-6.67a2.81,2.81,0,0,0-2.8,2.8v6.67A2.81,2.81,0,0,0,747.06,650.52ZM746.4,641a0.66,0.66,0,0,1,.66-0.66h6.67a0.66,0.66,0,0,1,.66.66v6.67a0.66,0.66,0,0,1-.66.66h-6.67a0.66,0.66,0,0,1-.66-0.66V641h0Z" transform="translate(-675.41 -612.12)"/><line class="cls-3" x1="40.53" y1="33.71" x2="53.04" y2="46.22"/><line class="cls-3" x1="52.97" y1="33.71" x2="40.46" y2="46.22"/></svg>