<svg id="Calque_1" data-name="Calque 1" xmlns="http://www.w3.org/2000/svg" xmlns:xlink="http://www.w3.org/1999/xlink" viewBox="0 0 92.64 92.64"><defs><style>.cls-1{stroke:#777;fill:url(#Dégradé_sans_nom_8);}.cls-1,.cls-3,.cls-4{stroke-miterlimit:10;}.cls-2{fill:#787878;}.cls-3,.cls-4{fill:none;}.cls-3{stroke:#787878;stroke-width:2.5px;}.cls-4{stroke:#ed1c24;stroke-width:4px;}</style><linearGradient id="Dégradé_sans_nom_8" x1="46.32" y1="0.5" x2="46.32" y2="92.14" gradientUnits="userSpaceOnUse"><stop offset="0" stop-color="#fff"/><stop offset="1" stop-color="#d9d9d9"/></linearGradient></defs><title>remove_selection</title><rect class="cls-1" x="0.5" y="0.5" width="91.64" height="91.64"/><path class="cls-2" d="M793.89,640.35a2.81,2.81,0,0,0-2.8-2.8H784.4a2.81,2.81,0,0,0-2.8,2.8V647a2.81,2.81,0,0,0,2.8,2.8h6.67a2.81,2.81,0,0,0,2.8-2.8v-6.67h0ZM791.74,647a0.66,0.66,0,0,1-.66.66H784.4a0.66,0.66,0,0,1-.66-0.66v-6.68a0.66,0.66,0,0,1,.66-0.66h6.67a0.66,0.66,0,0,1,.66.66V647h0Z" transform="translate(-767.77 -612.12)"/><path class="cls-2" d="M793.89,655.53a2.81,2.81,0,0,0-2.8-2.8H784.4a2.81,2.81,0,0,0-2.8,2.8v6.67a2.81,2.81,0,0,0,2.8,2.8h6.67a2.81,2.81,0,0,0,2.8-2.8v-6.67h0Zm-2.15,6.67a0.66,0.66,0,0,1-.66.66H784.4a0.66,0.66,0,0,1-.66-0.66v-6.67a0.66,0.66,0,0,1,.66-0.66h6.67a0.66,0.66,0,0,1,.66.66v6.67h0Z" transform="translate(-767.77 -612.12)"/><path class="cls-2" d="M805.09,673.89H798.4a2.81,2.81,0,0,0-2.8,2.8v6.67a2.81,2.81,0,0,0,2.8,2.8h6.67a2.81,2.81,0,0,0,2.8-2.8v-6.67A2.8,2.8,0,0,0,805.09,673.89Zm0.66,9.48a0.66,0.66,0,0,1-.66.66H798.4a0.66,0.66,0,0,1-.66-0.66V676.7a0.66,0.66,0,0,1,.66-0.66h6.67a0.66,0.66,0,0,1,.66.66v6.67h0Z" transform="translate(-767.77 -612.12)"/><path class="cls-2" d="M838.94,662.2a2.81,2.81,0,0,0,2.8,2.8h6.67a2.81,2.81,0,0,0,2.8-2.8v-6.67a2.81,2.81,0,0,0-2.8-2.8h-6.67a2.81,2.81,0,0,0-2.8,2.8v6.67h0Zm2.15-6.67a0.66,0.66,0,0,1,.66-0.66h6.67a0.66,0.66,0,0,1,.66.66v6.67a0.66,0.66,0,0,1-.66.66h-6.67a0.66,0.66,0,0,1-.66-0.66v-6.67h0Z" transform="translate(-767.77 -612.12)"/><path class="cls-2" d="M825.94,683.37a2.81,2.81,0,0,0,2.8,2.8h6.67a2.81,2.81,0,0,0,2.8-2.8V676.7a2.81,2.81,0,0,0-2.8-2.8h-6.67a2.81,2.81,0,0,0-2.8,2.8v6.67h0Zm2.15-6.68a0.66,0.66,0,0,1,.66-0.66h6.67a0.66,0.66,0,0,1,.66.66v6.67a0.66,0.66,0,0,1-.66.66h-6.67a0.66,0.66,0,0,1-.66-0.66v-6.67h0Z" transform="translate(-767.77 -612.12)"/><path class="cls-2" d="M841.75,649.83h6.67a2.81,2.81,0,0,0,2.8-2.8v-6.68a2.81,2.81,0,0,0-2.8-2.8h-6.67a2.81,2.81,0,0,0-2.8,2.8V647A2.81,2.81,0,0,0,841.75,649.83Zm-0.66-9.48a0.66,0.66,0,0,1,.66-0.66h6.67a0.66,0.66,0,0,1,.66.66V647a0.66,0.66,0,0,1-.66.66h-6.67a0.66,0.66,0,0,1-.66-0.66v-6.67h0Z" transform="translate(-767.77 -612.12)"/><path class="cls-3" d="M816.87,679.46L830.5,662l0,0a17.05,17.05,0,1,0-27.28,0Zm0-39.52a11.8,11.8,0,1,1-11.8,11.8A11.82,11.82,0,0,1,816.87,639.94Z" transform="translate(-767.77 -612.12)"/><line class="cls-4" x1="42.85" y1="33.03" x2="55.36" y2="45.54"/><line class="cls-4" x1="55.29" y1="33.03" x2="42.78" y2="45.54"/></svg>