<svg id="Calque_1" data-name="Calque 1" xmlns="http://www.w3.org/2000/svg" viewBox="0 0 121.23 119.94"><defs><style>.cls-1{fill:#787878;}.cls-2{fill:#f68b1f;}</style></defs><title>settings</title><path class="cls-1" d="M364,245.42a29.52,29.52,0,0,0,2.64,6.27l-3.19,4a3.3,3.3,0,0,0,.25,4.37l5.49,5.49a3.28,3.28,0,0,0,4.37.25l4-3.16a29,29,0,0,0,6.52,2.76l0.6,5.14a3.29,3.29,0,0,0,3.26,2.91h7.76a3.29,3.29,0,0,0,3.26-2.91l0.57-5a29.34,29.34,0,0,0,7-2.82l3.86,3.06a3.3,3.3,0,0,0,4.37-.25l5.49-5.49a3.28,3.28,0,0,0,.25-4.37l-3-3.81a28.66,28.66,0,0,0,2.87-6.87l4.63-.53a3.29,3.29,0,0,0,2.91-3.26v-7.76a3.29,3.29,0,0,0-2.91-3.26l-4.56-.53a28.85,28.85,0,0,0-2.76-6.79l2.81-3.55a3.3,3.3,0,0,0-.25-4.37l-5.48-5.48a3.28,3.28,0,0,0-4.37-.25L407,212a28.94,28.94,0,0,0-7.14-3l-0.52-4.46a3.29,3.29,0,0,0-3.26-2.91h-7.76a3.29,3.29,0,0,0-3.26,2.91L384.49,209a28.82,28.82,0,0,0-7.32,3.1l-3.58-2.84a3.3,3.3,0,0,0-4.37.25L363.73,215a3.28,3.28,0,0,0-.25,4.37l3,3.78a28.29,28.29,0,0,0-2.71,6.85l-4.79.55a3.29,3.29,0,0,0-2.91,3.26v7.76a3.29,3.29,0,0,0,2.91,3.26Zm28.13-21a12.84,12.84,0,1,1-12.84,12.84A12.85,12.85,0,0,1,392.16,224.41Z" transform="translate(-356.07 -201.62)"/><path class="cls-1" d="M468.92,247.33l-4.1-3.46a3.24,3.24,0,0,0-4.32.12l-2.26,2.12a23.39,23.39,0,0,0-6-2L451.57,241a3.27,3.27,0,0,0-3.46-2.6l-5.35.46a3.26,3.26,0,0,0-3,3.13l-0.1,3.17a23.46,23.46,0,0,0-5.76,3l-2.7-1.79a3.25,3.25,0,0,0-4.28.61l-3.46,4.12a3.24,3.24,0,0,0,.12,4.32L426,258a24.24,24.24,0,0,0-1.74,5.77l-3.38.69a3.27,3.27,0,0,0-2.6,3.46l0.46,5.35a3.26,3.26,0,0,0,3.13,3l3.65,0.12a23.88,23.88,0,0,0,2.59,4.94l-2,3.08a3.25,3.25,0,0,0,.61,4.28l4.1,3.46a3.24,3.24,0,0,0,4.32-.12l2.68-2.51a23.48,23.48,0,0,0,5.5,1.79L444,295a3.27,3.27,0,0,0,3.46,2.6l5.35-.46a3.26,3.26,0,0,0,3-3.13l0.12-3.59a24,24,0,0,0,5.5-2.78l3,2a3.25,3.25,0,0,0,4.28-.61l3.46-4.1a3.24,3.24,0,0,0-.12-4.32L469.57,278a23.42,23.42,0,0,0,1.87-5.8l3.25-.66a3.27,3.27,0,0,0,2.6-3.46l-0.46-5.35a3.26,3.26,0,0,0-3.13-3l-3.26-.1a23.62,23.62,0,0,0-2.72-5.36l1.78-2.68A3.23,3.23,0,0,0,468.92,247.33Zm-20.14,30.9a10.51,10.51,0,1,1,9.58-11.35A10.51,10.51,0,0,1,448.77,278.23Z" transform="translate(-356.07 -201.62)"/><path class="cls-2" d="M382.28,292.55a3.25,3.25,0,0,0-2.91,3.2l0,3.29a3.24,3.24,0,0,0,2.84,3.26l2.42,0.31a18.76,18.76,0,0,0,1.72,4.2l-1.56,1.92a3.24,3.24,0,0,0,.2,4.32l2.3,2.35a3.25,3.25,0,0,0,4.32.3l1.94-1.5a19,19,0,0,0,4.32,1.89l0.26,2.5a3.25,3.25,0,0,0,3.2,2.91l3.29,0a3.24,3.24,0,0,0,3.26-2.84l0.3-2.37a19.54,19.54,0,0,0,4.68-1.82l1.82,1.47a3.24,3.24,0,0,0,4.32-.2l2.35-2.3a3.25,3.25,0,0,0,.3-4.32l-1.39-1.81a18.86,18.86,0,0,0,2-4.55l2.16-.22a3.25,3.25,0,0,0,2.91-3.2l0-3.29a3.24,3.24,0,0,0-2.84-3.26l-2.11-.27a19.59,19.59,0,0,0-1.78-4.55l1.31-1.61a3.24,3.24,0,0,0-.2-4.32l-2.3-2.35a3.25,3.25,0,0,0-4.32-.3l-1.57,1.21a19.13,19.13,0,0,0-4.73-2.05l-0.21-2a3.25,3.25,0,0,0-3.2-2.91l-3.29,0a3.24,3.24,0,0,0-3.26,2.84l-0.26,2a19.64,19.64,0,0,0-4.9,2L392,279.14a3.24,3.24,0,0,0-4.32.2l-2.37,2.32A3.25,3.25,0,0,0,385,286l1.39,1.79a19,19,0,0,0-1.86,4.55Zm21.24-3.72a8.56,8.56,0,1,1-8.66,8.45A8.57,8.57,0,0,1,403.51,288.83Z" transform="translate(-356.07 -201.62)"/></svg>