<svg id="Calque_1" data-name="Calque 1" xmlns="http://www.w3.org/2000/svg" viewBox="0 0 111.38 120.01"><defs><style>.cls-1{fill:#787878;}.cls-2{fill:#f68b1f;}</style></defs><title>type_service</title><path class="cls-1" d="M705.84,250.1a10.71,10.71,0,1,1,1.25,21.38,10.6,10.6,0,0,1-5.26-1.06A15,15,0,0,0,697.16,256l-0.19-.15A10.61,10.61,0,0,1,705.84,250.1Zm-19.28,6.43,0.64,0A10.68,10.68,0,1,1,686.56,256.53Zm-19.28-6.43a10.69,10.69,0,0,1,10.12,5.78,15.3,15.3,0,0,0-1.42,1.38,14.9,14.9,0,0,0-3.76,10.84,15.1,15.1,0,0,0,.34,2.32,10.46,10.46,0,0,1-4,1,10.6,10.6,0,0,1-5.26-1.06,15.05,15.05,0,0,0,.33-4.09,14.9,14.9,0,0,0-5-10.31l-0.19-.15a10.61,10.61,0,0,1,8.87-5.76h0ZM648,256.53l0.64,0A10.68,10.68,0,1,1,648,256.53Zm-26.65-2.86a10.69,10.69,0,0,1,17.49,2.21,15.13,15.13,0,0,0-1.42,1.38,14.9,14.9,0,0,0-3.76,10.84,15.09,15.09,0,0,0,.34,2.34,10.44,10.44,0,0,1-4,1A10.71,10.71,0,0,1,621.36,253.67Z" transform="translate(-612.22 -250.09)"/><path class="cls-1" d="M663.63,312.2h-6.43v-7.5A7.45,7.45,0,0,0,655,299.4a7.53,7.53,0,0,0-5.84-2.19,7.69,7.69,0,0,0-7,7.84v7.15h-8.57a2.14,2.14,0,0,1-2.14-2.14v-6.43a12.87,12.87,0,0,1,12.85-12.85h8.57a12.87,12.87,0,0,1,12.85,12.85v6.43A2.14,2.14,0,0,1,663.63,312.2Zm40.7-2.14a2.14,2.14,0,0,1-2.14,2.14h-30a2.14,2.14,0,0,1-2.14-2.14v-6.43a12.87,12.87,0,0,1,12.85-12.85h8.57a12.87,12.87,0,0,1,12.85,12.85v6.43Zm6.43-25.7a12.87,12.87,0,0,1,12.85,12.85v6.43a2.14,2.14,0,0,1-2.14,2.14H708.61v-2.14a17.16,17.16,0,0,0-14-16.83,12.83,12.83,0,0,1,7.52-2.45h8.57Zm-38.55,0a12.84,12.84,0,0,1,7.52,2.45,17.17,17.17,0,0,0-11.81,8.55,17.18,17.18,0,0,0-11.81-8.55,12.83,12.83,0,0,1,7.52-2.45h8.57Zm-60,12.85a12.87,12.87,0,0,1,12.85-12.85h8.57a12.83,12.83,0,0,1,7.52,2.45,17.16,17.16,0,0,0-13.95,16.83v2.14H614.37a2.14,2.14,0,0,1-2.14-2.14v-6.43Z" transform="translate(-612.22 -250.09)"/><path class="cls-2" d="M660.48,322.92a3.19,3.19,0,0,1,3.21,3.21v13.92a2.14,2.14,0,1,0,4.28,0V328.27a3.21,3.21,0,0,1,6.43,0v11.78a2.14,2.14,0,1,0,4.28,0v-9.64a3.21,3.21,0,1,1,6.43,0v23a16.62,16.62,0,0,1-16.6,16.6l-0.27.05L668,370h-4.82a16.67,16.67,0,0,1-13.49-6.92,113.68,113.68,0,0,0-11.83-14.46l-5-5a3.46,3.46,0,0,1-.39-4.62,3.27,3.27,0,0,1,4.69-.17l2.13,2.12a4.28,4.28,0,0,0,7.32-3V305.06a3.45,3.45,0,0,1,3-3.56,3.24,3.24,0,0,1,2.53.94,3.19,3.19,0,0,1,.94,2.27v35.34a2.14,2.14,0,0,0,4.29,0V326.13A3.21,3.21,0,0,1,660.48,322.92Z" transform="translate(-612.22 -250.09)"/></svg>