<svg id="Calque_1" data-name="Calque 1" xmlns="http://www.w3.org/2000/svg" viewBox="0 0 142.9 187.6"><defs><style>.cls-1{fill:#787878;}.cls-2{fill:#f68b21;}</style></defs><title>unites_selectionnees</title><path class="cls-1" d="M909.83,383.92l57.12-73.23,0.06-.08a71.45,71.45,0,1,0-114.31.08Zm0-165.61a49.46,49.46,0,1,1-49.46,49.46A49.52,49.52,0,0,1,909.83,218.31Z" transform="translate(-838.38 -196.32)"/><path class="cls-2" d="M909.83,305.68a38.47,38.47,0,1,0-38.47-38.47A38.52,38.52,0,0,0,909.83,305.68Zm-18.1-42.36,12.6,12.6,23.59-23.59,7.77,7.77-31.37,31.37L884,271.09Z" transform="translate(-838.38 -196.32)"/></svg>